# File created by Blade
# Date/Time:  Fri Jan 16 19:41:12 2015
# Frame Rate: 120.000 fps
#------------------------------------------------------
:FULLY-SPECIFIED
:DEGREES
1202
root 20.713152 35.635276 -22.631662 4.343832 0.727795 -0.792523
Spine -9.352728 0.938898 -6.919846
Head 51.981370 -13.093003 -9.402694
LeftShoulder -20.172486 -28.947884 32.171384
LeftArm 11.110057 -30.143560 -2.451200
LeftForeArm -1.227548 0.000000 151.611085
LeftHand 1.025070 -0.000000 43.766550
LeftHandThumb1 -26.253704 0.000000 33.147579
RightShoulder -9.573910 -46.089106 0.395237
RightArm 2.034140 -64.655871 51.889736
RightForeArm -40.394085 -0.000000 118.000949
RightHand 7.085792 0.000000 31.147513
RightHandThumb1 -24.326973 -0.000000 -32.862282
LeftUpLeg 4.236556 3.291931 -2.207313
LeftLeg -6.428881 -0.000000 0.000000
LeftFoot -21.205914 30.702419 -13.763961
LeftToeBase 22.628541 -0.000000 -0.000000
RightUpLeg -1.004246 -8.252193 -5.173684
RightLeg 4.289661 -0.000000 -0.000000
RightFoot -22.262375 -22.601735 23.179419
RightToeBase 22.409755 -0.000000 -0.000000
1203
root 20.773733 35.642646 -22.663683 4.424410 0.463314 -0.875618
Spine -9.321504 1.275618 -6.920003
Head 51.705908 -13.758100 -9.339213
LeftShoulder -20.258075 -28.557368 31.699143
LeftArm 9.202103 -29.376077 -1.970211
LeftForeArm 0.601523 0.000000 150.644010
LeftHand 0.783469 -0.000000 44.344364
LeftHandThumb1 -26.253704 0.000000 33.147579
RightShoulder -9.858679 -45.798892 0.759167
RightArm 2.441553 -64.840678 51.140075
RightForeArm -41.810257 -0.000000 116.055119
RightHand 7.196900 -0.000000 30.378938
RightHandThumb1 -24.326973 -0.000000 -32.862282
LeftUpLeg 4.147885 3.449323 -2.254660
LeftLeg -6.470862 -0.000000 0.000000
LeftFoot -21.199241 30.785827 -13.774484
LeftToeBase 22.618581 -0.000000 -0.000000
RightUpLeg -1.266137 -8.152103 -5.178404
RightLeg 4.403336 -0.000000 -0.000000
RightFoot -22.041127 -22.619723 23.108180
RightToeBase 22.616421 -0.000000 -0.000000
1204
root 20.828406 35.648239 -22.695558 4.475454 0.254089 -0.970116
Spine -9.257139 1.622999 -6.910701
Head 51.418523 -14.503058 -9.363397
LeftShoulder -20.280336 -28.020155 31.100872
LeftArm 7.410904 -28.633085 -1.616975
LeftForeArm 2.419794 -0.000000 149.530177
LeftHand 0.519387 0.000000 44.682067
LeftHandThumb1 -26.253704 0.000000 33.147579
RightShoulder -10.152593 -45.492783 1.095986
RightArm 2.853206 -65.176472 50.573526
RightForeArm -43.659271 -0.000000 113.996929
RightHand 7.478443 -0.000000 30.540674
RightHandThumb1 -24.326973 -0.000000 -32.862282
LeftUpLeg 4.074845 3.608049 -2.270415
LeftLeg -6.492053 -0.000000 0.000000
LeftFoot -21.171832 30.823606 -13.715508
LeftToeBase 22.567258 -0.000000 -0.000000
RightUpLeg -1.480031 -8.080823 -5.159875
RightLeg 4.499275 -0.000000 -0.000000
RightFoot -21.811170 -22.519586 23.122280
RightToeBase 22.577598 -0.000000 -0.000000
1205
root 20.880563 35.652593 -22.720046 4.471763 0.112680 -1.050567
Spine -9.128124 1.925408 -6.921176
Head 51.085128 -15.328457 -9.323622
LeftShoulder -20.339525 -27.549485 30.551264
LeftArm 5.747994 -27.771771 -1.462291
LeftForeArm 4.436498 0.000000 148.294370
LeftHand 0.163268 -0.000000 45.267478
LeftHandThumb1 -26.253704 0.000000 33.147579
RightShoulder -10.537280 -45.232324 1.544787
RightArm 3.330561 -65.481350 49.885921
RightForeArm -46.046380 -0.000000 111.897789
RightHand 7.180480 -0.000000 29.970895
RightHandThumb1 -24.326973 -0.000000 -32.862282
LeftUpLeg 4.059127 3.768405 -2.286287
LeftLeg -6.506439 -0.000000 0.000000
LeftFoot -21.138851 30.802287 -13.619411
LeftToeBase 22.554813 -0.000000 -0.000000
RightUpLeg -1.579868 -8.080415 -5.164685
RightLeg 4.545418 -0.000000 -0.000000
RightFoot -21.566476 -22.437581 23.102023
RightToeBase 22.480945 -0.000000 -0.000000
1206
root 20.940619 35.658246 -22.751698 4.564569 -0.124611 -1.132039
Spine -9.126455 2.305031 -6.894664
Head 50.727022 -16.106152 -9.330161
LeftShoulder -20.383827 -26.896801 29.841613
LeftArm 4.174026 -27.060944 -1.381918
LeftForeArm 6.348741 -0.000000 146.919725
LeftHand 0.035608 -0.000000 45.617976
LeftHandThumb1 -26.253704 0.000000 33.147579
RightShoulder -10.842495 -44.949313 1.887301
RightArm 3.707631 -65.715246 49.398714
RightForeArm -48.119698 -0.000000 109.694841
RightHand 7.043846 0.000000 30.043915
RightHandThumb1 -24.326973 -0.000000 -32.862282
LeftUpLeg 3.954817 3.997118 -2.332459
LeftLeg -6.550654 -0.000000 0.000000
LeftFoot -21.117625 30.814686 -13.600421
LeftToeBase 22.478625 -0.000000 -0.000000
RightUpLeg -1.839427 -7.934259 -5.174115
RightLeg 4.652715 -0.000000 -0.000000
RightFoot -21.345771 -22.386046 23.164033
RightToeBase 22.411075 -0.000000 -0.000000
1207
root 20.992763 35.662272 -22.777437 4.598041 -0.224755 -1.202986
Spine -9.037225 2.577257 -6.906216
Head 50.284480 -16.962065 -9.249189
LeftShoulder -20.384037 -26.049975 29.030325
LeftArm 2.798723 -26.558474 -1.397448
LeftForeArm 7.744016 -0.000000 145.516666
LeftHand -0.029610 0.000000 45.766855
LeftHandThumb1 -26.253704 0.000000 33.147579
RightShoulder -11.244981 -44.595092 2.296064
RightArm 4.256077 -66.053526 48.762064
RightForeArm -49.849554 0.000000 107.275739
RightHand 6.923555 -0.000000 30.104410
RightHandThumb1 -24.326973 -0.000000 -32.862282
LeftUpLeg 3.904099 4.077966 -2.357959
LeftLeg -6.583354 -0.000000 0.000000
LeftFoot -21.087879 30.835182 -13.545571
LeftToeBase 22.467649 -0.000000 -0.000000
RightUpLeg -1.966404 -7.967199 -5.184299
RightLeg 4.693105 -0.000000 -0.000000
RightFoot -21.097431 -22.321259 23.122284
RightToeBase 22.374925 -0.000000 -0.000000
1208
root 21.050982 35.665668 -22.810933 4.688835 -0.374523 -1.284335
Spine -9.017513 2.824169 -6.848415
Head 49.859237 -17.723969 -9.317792
LeftShoulder -20.484522 -25.332833 28.302487
LeftArm 1.477876 -25.769595 -1.548149
LeftForeArm 9.312220 0.000000 144.007240
LeftHand -0.036605 -0.000000 45.878037
LeftHandThumb1 -26.253704 0.000000 33.147579
RightShoulder -11.483953 -44.235925 2.510718
RightArm 4.735412 -66.372184 48.276196
RightForeArm -51.978232 -0.000000 104.791191
RightHand 6.784677 -0.000000 29.925284
RightHandThumb1 -24.326973 -0.000000 -32.862282
LeftUpLeg 3.778797 4.209382 -2.395906
LeftLeg -6.604474 -0.000000 0.000000
LeftFoot -21.058831 30.877511 -13.452314
LeftToeBase 22.434059 -0.000000 -0.000000
RightUpLeg -2.204868 -7.896932 -5.189993
RightLeg 4.796025 -0.000000 -0.000000
RightFoot -20.887478 -22.268968 23.153011
RightToeBase 22.310596 -0.000000 -0.000000
